<svg width="24" height="24" viewBox="0 0 24 24" fill="none" xmlns="http://www.w3.org/2000/svg">
<g id="&#208;&#154;&#208;&#190;&#209;&#128;&#208;&#183;&#208;&#184;&#208;&#189;&#208;&#176;">
<path id="Vector" d="M19.3598 6.70995V3.61314C19.3598 1.62125 17.9803 0 16.2512 0H7.77658C6.04755 0 4.63974 1.62067 4.63974 3.61314V6.70937H1.36481C0.611078 6.70937 0 7.41335 0 8.28167V11.6996C0 12.5685 0.611078 13.2719 1.36481 13.2719H1.77152L3.26279 22.7098C3.38066 23.4569 3.94621 24 4.60535 24H19.423C20.0826 24 20.6472 23.4569 20.7655 22.7092L22.2558 13.2719H22.6352C23.3889 13.2719 24 12.5685 24 11.6996V8.28167C24 7.41335 23.3889 6.70937 22.6352 6.70937L19.3598 6.70995ZM7.16803 3.61314C7.16803 3.23318 7.44676 2.91266 7.77658 2.91266H16.2528C16.5821 2.91266 16.8325 3.23318 16.8325 3.61314V6.70937H7.16803V3.61314ZM9.0559 18.381C9.0559 18.9853 8.63654 19.4748 8.11196 19.4748C7.58789 19.4748 7.16803 18.9853 7.16803 18.381V12.3762C7.16803 11.7718 7.58789 11.2829 8.11196 11.2829C8.63705 11.2829 9.0559 11.773 9.0559 12.3762V18.381ZM12.9601 18.381C12.9601 18.9853 12.5403 19.4748 12.0162 19.4748C11.4921 19.4748 11.0717 18.9853 11.0717 18.381V12.3762C11.0717 11.7718 11.4921 11.2829 12.0162 11.2829C12.5408 11.2829 12.9601 11.773 12.9601 12.3762V18.381ZM16.8643 18.381C16.8643 18.9853 16.4445 19.4748 15.9209 19.4748C15.3963 19.4748 14.9765 18.9853 14.9765 18.381V12.3762C14.9765 11.7718 15.3963 11.2829 15.9209 11.2829C16.4445 11.2829 16.8643 11.773 16.8643 12.3762V18.381Z" fill="#7B7B7B"/>
</g>
</svg>
