<svg width="24" height="24" viewBox="0 0 24 24" fill="none" xmlns="http://www.w3.org/2000/svg">
<path d="M14.1182 5.21283C14.1182 4.66054 13.6705 4.21283 13.1182 4.21283H11.0249L11.7871 2.68688L15.7509 1.55319C16.126 1.44592 16.3431 1.055 16.2361 0.679872V0.679872C16.1289 0.304451 15.7376 0.0870667 15.3623 0.194429L10.802 1.49877L9.4465 4.21283H1C0.447715 4.21283 0 4.66054 0 5.21283V6.74621C0 7.2985 0.447715 7.74621 1 7.74621H13.1182C13.6705 7.74621 14.1182 7.29849 14.1182 6.74621V5.21283Z" fill="#FD3A69"/>
<path d="M9.88281 19.0527H22.5892V20.4661H9.88281V19.0527Z" fill="#FD3A69"/>
<path d="M7.05703 17.6403C7.05703 14.1538 9.36183 11.1961 12.5262 10.2137V10.2137C12.5678 9.64469 12.1173 9.16016 11.5468 9.16016H3.40729C2.40192 9.16016 1.61355 10.0234 1.70447 11.0246L2.71764 22.1812C2.81119 23.2115 3.67496 24.0004 4.70944 24.0004H7.4369C7.19581 23.5843 7.05703 23.1017 7.05703 22.587V17.6403Z" fill="#FD3A69"/>
<path d="M8.46875 17.6394H23.9988C23.9988 14.1324 21.1488 11.2793 17.6456 11.2793H14.822C11.3188 11.2793 8.46875 14.1324 8.46875 17.6394Z" fill="#FD3A69"/>
<path d="M8.46875 22.5866C8.46875 23.3659 9.10209 23.9999 9.88057 23.9999H22.5855C23.364 23.9999 23.9973 23.3659 23.9973 22.5866V21.8799H8.46875V22.5866Z" fill="#FD3A69"/>
</svg>
