<svg width="24" height="24" viewBox="0 0 24 24" fill="none" xmlns="http://www.w3.org/2000/svg">
<path id="Union" fill-rule="evenodd" clip-rule="evenodd" d="M4.80009 6.32812C4.80009 2.8388 8.03001 0 12.0001 0C15.9702 0 19.2001 2.8388 19.2001 6.32812C19.2001 9.81745 15.9702 12.6562 12.0001 12.6562C8.03001 12.6562 4.80009 9.81745 4.80009 6.32812ZM13.6 14.0626C16.3738 14.0626 18.987 15.0313 20.9582 16.7905C22.9197 18.541 24 20.8516 24 23.297C24 23.6853 23.6418 24.0001 23.2 24.0001H0.8C0.358187 24.0001 0 23.6853 0 23.297C0 20.8516 1.08027 18.541 3.04181 16.7905C5.01301 15.0313 7.62624 14.0626 10.4 14.0626H13.6Z" fill="#7B7B7B"/>
</svg>
